<?xml version="1.0" standalone="no"?>
<!DOCTYPE svg PUBLIC "-//W3C//DTD SVG 20010904//EN"
 "http://www.w3.org/TR/2001/REC-SVG-20010904/DTD/svg10.dtd">
<svg version="1.0" xmlns="http://www.w3.org/2000/svg"
 width="2144.000000pt" height="2144.000000pt" viewBox="0 0 2144.000000 2144.000000"
 preserveAspectRatio="xMidYMid meet">

<g transform="translate(0.000000,2144.000000) scale(0.100000,-0.100000)"
fill="#000000" stroke="none">
<path d="M2823 21345 c-626 -65 -1150 -274 -1613 -641 -119 -95 -370 -348
-473 -478 -375 -472 -583 -994 -643 -1606 -4 -41 -7 -3619 -7 -7950 1 -7351 2
-7884 18 -8005 94 -723 378 -1293 897 -1800 237 -233 456 -388 743 -530 311
-154 600 -240 980 -292 124 -17 485 -18 8035 -18 7532 0 7911 1 8030 18 490
70 909 224 1275 469 461 309 807 698 1040 1173 154 313 237 590 292 975 17
119 18 497 18 8025 0 8418 3 7956 -46 8215 -117 617 -375 1111 -818 1564 -496
506 -1071 782 -1831 878 -119 15 78 14 -7300 10 -2577 -1 -5535 0 -6575 3
-1572 4 -1912 2 -2022 -10z m8222 -5325 c1126 -71 2168 -469 3025 -1155 871
-696 1497 -1623 1795 -2655 64 -221 88 -331 154 -680 47 -251 50 -279 61 -530
27 -642 -41 -1237 -210 -1820 -350 -1211 -1198 -2330 -2275 -3002 -778 -486
-1596 -754 -2460 -807 -435 -27 -1025 -25 -1025 4 0 8 -28 17 -82 24 -1004
141 -1919 548 -2713 1207 -164 136 -509 480 -644 643 -699 840 -1112 1802
-1226 2857 -8 77 -19 241 -25 365 -11 250 -14 5541 -3 5552 11 12 5449 8 5628
-3z"/>
</g>
</svg>
