<?xml version="1.0" encoding="UTF-8"?>
<!DOCTYPE svg PUBLIC "-//W3C//DTD SVG 1.1//EN" "http://www.w3.org/Graphics/SVG/1.1/DTD/svg11.dtd">
<svg xmlns="http://www.w3.org/2000/svg" version="1.1" width="3328px" height="4768px" viewBox="0 0 1670 2393" style="shape-rendering:geometricPrecision; text-rendering:geometricPrecision; image-rendering:optimizeQuality; fill-rule:evenodd; clip-rule:evenodd" xmlns:xlink="http://www.w3.org/1999/xlink">
<g><path fill="#000000" stroke="#000000" stroke-width="0.5" d="M 51.35,1131.13 c -0.19,-1.18 -0.42,-2.35 -0.7,-3.51 c -0.34,-1.35 -0.89,-2.59 -1.66,-3.72 c -0.23,-0.93 -0.46,-1.83 -0.69,-2.68 c -0.21,-1.96 -0.67,-3.87 -1.36,-5.73 c -0.06,-0.74 -0.43,-1.13 -1.13,-1.16 c 0.78,-2.81 -0.67,-4.13 -1.2,-6.68 c -0.17,-0.31 -0.41,-0.43 -0.74,-0.36 c 0.26,-2.71 -0.36,-5.19 -1.88,-7.43 c -3.7,-13.66 -7.16,-27.42 -10.39,-41.29 c -5.5,-24.7 -10.11,-49.14 -14.18,-74.07 c 0.62,-3.19 -1.93,-6.75 -0.84,-9.79 c -1.28,-2.35 -2.67,-12.56 -2.02,-14.96 c -0.78,-2.01 -1.24,-4.1 -1.38,-6.27 c -9.02,-77.24 -9.99,-154.93 0.49,-232.08 c 1.54,-5.92 2.09,-12.8 2.72,-18.9 c 1.2,-6.06 2.23,-12.14 3.1,-18.24 c 1.12,-7.11 3.27,-13.87 4.01,-20.76 c 12.43,-59.44 30.24,-115.04 54.78,-170.58 c 61.3,-137.34 158.34,-256.06 281.24,-342.88 c 96.48,-67.84 207.43,-114.51 322.96,-135.68 c 4.18,-0.07 10.06,-2.18 13.82,-1.86 c 2.67,-1.04 25.5,-4.54 28.03,-3.97 c 1.95,-0.86 4.01,-1.33 6.17,-1.42 c 23.29,-3.03 46.67,-3.89 69.98,-6.12 c 20.68,0.02 41.36,0.01 62.04,-0.01 c 26.44,1.1 52.79,3.35 79.03,6.75 c 3.11,1.46 6.2,-0.21 9.18,1.79 c 2.68,-0.76 23.75,3.17 26,4.05 c 2.29,-0.45 9.03,0.58 10.97,2.04 c 0.93,-0.22 1.86,-0.28 2.8,-0.16 c 28.55,5.52 55.56,12.73 83.57,19.91 c 77.24,22.47 149.49,56.55 216.71,100.17 c 122.52,80.21 212.87,182.88 281.01,312.36 c 40.01,75.02 66.02,159.59 80.78,242.61 c 1.05,9.24 3.6,21.63 4.68,30.95 c 7.98,59.34 9.51,118.32 5.6,178.05 c -1.74,26.37 -5.6,52.29 -8.24,78 c -1.97,12.3 -4.48,24.81 -6.06,37 c -1.99,10.01 -4.38,20.27 -5.96,30.04 c -3.19,13.31 -6.2,28.01 -10.06,41.25 c -0.73,3.66 -0.95,7.15 -2.78,10.43 c -25.53,102.94 -74.41,196.86 -131.35,285.52 c -80.5,124.33 -177.2,238.03 -269.69,353.49 c -50.26,64.4 -99.69,128.69 -144.39,196.63 c -23.74,37.17 -45.75,74.17 -66.94,113.05 c -10.56,19.88 -20.32,39.88 -29.69,60.28 c -10.19,24.22 -19.7,48.4 -28.97,72.99 c -15.81,44.44 -29.84,88.47 -44.52,133.31 c -9.71,27.56 -24.51,55.38 -53.76,65.57 c -26.35,8.1 -60.55,4.81 -79.07,-17.94 c -22.94,-28.89 -30.8,-65.81 -42.12,-99.96 c -19.2,-57.45 -39.44,-114.71 -65.13,-170.02 c -64.04,-133.91 -156.76,-253.77 -246.44,-371.31 c -115.73,-147.83 -241.63,-289.14 -324.88,-458.29 c -20.55,-41.88 -37.94,-83.66 -51.45,-128.41 Z M 593.11,624.09 c -0.9,0.16 -1.8,0.29 -2.71,0.38 c -0.9,0.15 -2.51,-1.16 -3.05,0.03 c 0.8,1.05 1.66,2.06 2.57,3.04 c 0.29,1.1 0.29,2.2 0,3.3 c -7.69,9.1 -15.39,18.2 -23.09,27.28 c -1.04,3.01 0.4,3.66 -2.52,5.7 c -14.21,23 -24.93,50.71 -33.54,76.36 c -36.07,121.94 2.47,252.18 100.37,333.95 c 39.95,33.5 89.76,57.12 140.82,66.8 c 0.32,0.63 0.85,0.95 1.58,0.98 c 2.19,0.66 4.45,1.02 6.77,1.07 c 11.34,1.54 22.73,2.82 34.16,3.83 c 67.71,3.83 132.52,-12.74 189.98,-48.88 c 18.09,-11.72 41.36,-27.43 54.54,-44.4 c 1.11,-0.3 2.22,-0.58 3.34,-0.87 c 63,-65.36 95.67,-161.87 87.41,-252.16 c -1.58,-16.1 -3.89,-30.7 -7.68,-46.14 c 0.24,-1.23 -1.02,-7.05 -2.13,-7.44 c -7.65,-29.19 -20.67,-57.23 -36.31,-83.01 c -28.63,-43.69 -61.85,-76.68 -106.7,-104.14 c -33.97,-20.03 -76.75,-38.05 -115.42,-42.2 c -31.59,-5.02 -63.44,-4.87 -95.02,0.11 c -4.92,0.13 -22.46,4.25 -27.89,5.84 c -20.96,4.98 -39.52,12.52 -59.39,21.29 c -16.71,8.21 -31.85,17.24 -47.32,27.51 c -21.28,15.65 -40.9,32.48 -58.77,51.77 Z"/></g>
<g><path fill="#250a08" fill-opacity="0.486" d="M 41.99,1099.86 c 1.52,2.24 2.14,4.72 1.88,7.43 c -1.14,-0.3 -0.64,-2.9 -1.7,-3.87 c -0.22,-1.18 -0.28,-2.37 -0.18,-3.56 Z M 43.87,1107.29 c 0.33,-0.07 0.57,0.05 0.74,0.36 c 0.53,2.55 1.98,3.87 1.2,6.68 c -0.55,-1.28 -1.11,-2.58 -1.66,-3.91 c -0.25,-1.03 -0.34,-2.08 -0.28,-3.13 Z M 45.81,1114.33 c 0.7,0.03 1.07,0.42 1.13,1.16 c 0.69,1.86 1.15,3.77 1.36,5.73 c -0.48,0.03 -0.81,-0.2 -0.99,-0.66 c -0.09,-1.17 -0.5,-2.22 -1.23,-3.13 c -0.19,-1.02 -0.28,-2.05 -0.27,-3.1 Z"/></g>
<g><path fill="#171523" fill-opacity="0.322" stroke="#171523" stroke-width="0.5" stroke-opacity="0.322" d="M 593.11,624.09 c -2.46,1.8 -2.51,2.41 -2.11,5.42 c -0.03,0.73 -0.39,1.17 -1.08,1.33 c 0.29,-1.1 0.29,-2.2 0,-3.3 c -0.91,-0.98 -1.77,-1.99 -2.57,-3.04 c 0.54,-1.19 2.15,0.12 3.05,-0.03 c 0.91,-0.09 1.81,-0.22 2.71,-0.38 Z"/></g>
<g><path fill="#211900" fill-opacity="0.58" d="M 771.96,1140.93 c 1.19,0 2.37,0.05 3.55,0.15 c 1.2,0.72 2.49,1.08 3.89,1.08 c 0.44,0.13 0.74,0.4 0.91,0.82 c -2.32,-0.05 -4.58,-0.41 -6.77,-1.07 c -0.73,-0.03 -1.26,-0.35 -1.58,-0.98 Z"/></g>
<g><path fill="#091220" fill-opacity="0.549" d="M 1139.93,746.92 c 1.11,0.39 2.37,6.21 2.13,7.44 c -1.22,-0.2 -1.12,-3.91 -2.02,-4.96 c -0.14,-0.82 -0.17,-1.65 -0.11,-2.48 Z"/></g>
<g><path fill="#280b09" fill-opacity="0.463" d="M 48.99,1123.9 c 0.77,1.13 1.32,2.37 1.66,3.72 c 0.28,1.16 0.51,2.33 0.7,3.51 c -0.49,0.05 -0.84,-0.15 -1.05,-0.61 c -0.15,-1.14 -0.56,-2.16 -1.23,-3.08 c -0.18,-1.17 -0.21,-2.35 -0.08,-3.54 Z"/></g>
</svg>
