<?xml version="1.0" standalone="no"?>
<!DOCTYPE svg PUBLIC "-//W3C//DTD SVG 20010904//EN"
 "http://www.w3.org/TR/2001/REC-SVG-20010904/DTD/svg10.dtd">
<svg version="1.0" xmlns="http://www.w3.org/2000/svg"
 width="1812.000000pt" height="1878.000000pt" viewBox="0 0 1812.000000 1878.000000"
 preserveAspectRatio="xMidYMid meet">

<g transform="translate(0.000000,1878.000000) scale(0.100000,-0.100000)"
fill="#000000" stroke="none">
<path d="M13105 17819 c-462 -37 -1315 -107 -1895 -154 -2807 -228 -3016 -247
-3365 -304 -2039 -337 -3873 -1418 -5158 -3041 -54 -69 -104 -128 -111 -131
-6 -4 -238 -17 -516 -28 -498 -22 -1081 -50 -1130 -56 -15 -1 -24 -8 -22 -16
2 -8 172 -339 378 -737 l375 -722 -69 -163 c-318 -744 -535 -1589 -616 -2397
-42 -415 -54 -1013 -27 -1375 75 -1034 317 -1995 723 -2884 65 -143 2460
-4967 2471 -4978 2 -2 73 2 158 7 85 6 647 40 1249 75 2736 163 3750 225 4055
251 1627 134 3206 769 4487 1806 519 420 1053 974 1423 1475 50 68 99 125 110
127 11 3 384 21 830 41 445 20 812 38 814 40 2 2 -171 340 -383 750 l-387 746
57 142 c436 1090 640 2282 585 3427 -51 1064 -258 1971 -668 2935 -30 72 -528
1129 -1105 2350 -578 1221 -1120 2370 -1207 2552 -155 330 -156 333 -186 332
-16 -1 -408 -32 -870 -70z m-3715 -2689 c780 -54 1474 -239 2175 -579 1063
-516 1939 -1324 2535 -2336 112 -192 294 -564 378 -775 221 -557 353 -1117
408 -1730 20 -223 23 -699 5 -910 -62 -745 -256 -1430 -598 -2110 -51 -102
-102 -201 -115 -220 -12 -19 -70 -114 -128 -211 -248 -412 -511 -750 -835
-1074 -721 -723 -1592 -1202 -2770 -1525 -702 -192 -1792 -343 -2890 -400
-573 -29 -2038 -81 -2046 -72 -8 9 -355 657 -579 1082 -206 392 -628 1233
-729 1455 -215 470 -392 900 -529 1285 -254 714 -383 1255 -449 1890 -25 242
-25 881 0 1110 62 560 192 1057 408 1562 63 148 214 454 286 582 25 43 63 113
85 155 138 263 478 716 774 1033 973 1040 2409 1706 3864 1791 135 8 618 6
750 -3z"/>
</g>
</svg>
